#!OML:ASF F:\VICON\USERDATA\Patient Classification 1\PLAYGROUND\JustinFriday\JustinFriday.ASF
:FULLY-SPECIFIED
:DEGREES
2736
root 15.0893 16.2996 -15.9857 18.6251 -72.1351 -17.1067
lowerback 25.2982 -1.5609 -1.09727
upperback 4.55535 -2.22975 4.10636
thorax -8.7881 -1.11952 5.94944
lowerneck -2.89871 12.2451 2.0183
upperneck -14.3025 15.6302 -6.81721
head -3.42502 7.81847 -2.80304
rclavicle 8.49804e-015 -1.37161e-014
rhumerus -72.8268 -57.2167 14.135
rradius 128.216
rwrist 23.4357
rhand -70.535 -7.56483
rfingers 7.12502
rthumb -42.1103 -32.1178
lclavicle 8.49804e-015 -1.37161e-014
lhumerus -27.4627 2.11371 68.8459
lradius 93.935
lwrist -23.0169
lhand -35.8116 -19.5506
lfingers 7.12502
lthumb -8.92798 10.2405
rfemur -17.9811 -10.7339 21.6683
rtibia 64.0513
rfoot -26.6196 -23.8412
rtoes -19.7339
lfemur -40.2149 10.3252 -11.3203
ltibia 61.3763
lfoot -12.6931 -36.4907
ltoes 19.3511
2737
root 15.0515 16.3982 -16.0009 18.7182 -71.5398 -16.1555
lowerback 24.2111 -1.23513 -1.68952
upperback 4.32419 -1.92158 4.21906
thorax -8.49186 -0.948497 6.27025
lowerneck -3.06954 12.156 1.9161
upperneck -14.5162 15.4813 -6.9518
head -3.47303 7.7517 -2.83104
rclavicle 1.94312e-014 -6.16232e-015
rhumerus -70.1489 -56.0695 8.38062
rradius 129.815
rwrist 24.954
rhand -71.9606 13.669
rfingers 7.12502
rthumb -43.4441 -10.4181
lclavicle 1.94312e-014 -6.16232e-015
lhumerus -28.4092 3.40108 67.8732
lradius 94.453
lwrist -23.4858
lhand -36.6717 -19.602
lfingers 7.12502
lthumb -9.75794 10.1519
rfemur -18.238 -11.0851 22.0538
rtibia 62.4875
rfoot -25.971 -24.1133
rtoes -19.4333
lfemur -40.5485 11.2633 -11.7172
ltibia 59.9356
lfoot -14.3264 -35.1873
ltoes 15.8132
2738
root 14.9963 16.509 -15.9615 18.6926 -71.0667 -15.9576
lowerback 23.9971 -1.04934 -1.43946
upperback 4.12619 -1.60561 4.10975
thorax -8.6487 -0.790363 5.90188
lowerneck -3.13757 12.0172 1.99254
upperneck -14.5056 15.2777 -7.10884
head -3.44663 7.65394 -2.88613
rclavicle 1.5704e-014 3.67752e-015
rhumerus -67.0325 -54.1299 2.02363
rradius 130.956
rwrist 25.0693
rhand -70.8792 50.7589
rfingers 7.12502
rthumb -42.4327 26.3155
lclavicle 1.5704e-014 3.67752e-015
lhumerus -29.6369 4.61618 66.7739
lradius 95.1726
lwrist -23.7607
lhand -37.1792 -20.7643
lfingers 7.12502
lthumb -10.2475 8.96609
rfemur -17.4364 -11.2537 22.1175
rtibia 60.8732
rfoot -25.3377 -24.183
rtoes -19.2832
lfemur -39.7 11.4354 -11.9493
ltibia 58.4952
lfoot -18.2791 -31.3831
ltoes 9.27852
2739
root 14.9538 16.5871 -15.929 18.2635 -70.2921 -15.4506
lowerback 23.9902 -0.942956 -1.22119
upperback 3.9628 -1.39764 4.08421
thorax -8.85641 -0.684263 5.68902
lowerneck -3.64555 11.7689 2.21657
upperneck -14.0918 14.9262 -7.31802
head -3.19093 7.47156 -2.91883
rclavicle 2.9768e-014 -1.47101e-014
rhumerus -63.5698 -52.1179 -5.05802
rradius 132.017
rwrist 23.6298
rhand -66.1713 73.6911
rfingers 7.12502
rthumb -38.0048 47.8932
lclavicle 2.9768e-014 -1.47101e-014
lhumerus -30.593 5.88154 65.5751
lradius 95.9505
lwrist -23.9133
lhand -37.4406 -23.0965
lfingers 7.12502
lthumb -10.4997 6.62126
rfemur -16.6321 -11.601 22.1812
rtibia 59.4553
rfoot -24.6894 -24.3836
rtoes -18.9358
lfemur -39.0171 11.9623 -12.282
ltibia 57.2055
lfoot -21.1201 -27.4775
ltoes 3.51488
2740
root 14.9151 16.6816 -15.897 16.4819 -69.4192 -13.5256
lowerback 24.0008 -0.837356 -1.40454
upperback 3.80056 -1.29888 3.95276
thorax -9.05264 -0.618659 5.62409
lowerneck -3.72962 11.5586 1.85473
upperneck -14.2156 14.662 -7.02931
head -3.28319 7.3459 -2.77791
rclavicle 1.5207e-014 1.23246e-014
rhumerus -60.0485 -49.7963 -12.5233
rradius 133.062
rwrist 20.6242
rhand -59.138 82.3849
rfingers 7.12502
rthumb -31.3308 55.0471
lclavicle 1.5207e-014 1.23246e-014
lhumerus -31.2232 6.89819 64.3131
lradius 96.713
lwrist -23.8762
lhand -37.5939 -25.3615
lfingers 7.12502
lthumb -10.6476 4.34872
rfemur -15.776 -12.4035 21.6457
rtibia 58.0144
rfoot -23.6188 -24.528
rtoes -19.1303
lfemur -38.2674 11.7561 -12.9657
ltibia 55.9165
lfoot -22.2121 -23.4608
ltoes 0.923328
2741
root 14.8662 16.7778 -15.864 15.9046 -68.8109 -12.789
lowerback 23.7496 -0.679876 -1.57489
upperback 3.64219 -1.11894 3.96769
thorax -9.1127 -0.517531 5.67881
lowerneck -3.66822 11.5465 1.79067
upperneck -14.1218 14.6384 -7.20557
head -3.25312 7.34788 -2.8231
rclavicle -1.26228e-014 -1.72943e-014
rhumerus -56.1647 -46.6359 -20.6856
rradius 133.441
rwrist 20.1458
rhand -54.9951 86.3864
rfingers 7.12502
rthumb -27.3755 58.3548
lclavicle -1.26228e-014 -1.72943e-014
lhumerus -32.0494 8.12447 63.0854
lradius 97.5624
lwrist -23.6529
lhand -37.9184 -25.7226
lfingers 7.12502
lthumb -10.9606 3.9713
rfemur -15.0168 -12.7839 21.4932
rtibia 56.6327
rfoot -22.7538 -24.4893
rtoes -19.119
lfemur -37.5357 11.922 -13.2132
ltibia 54.7325
lfoot -22.3981 -19.6891
ltoes 0.284992
2742
root 14.8172 16.8413 -15.8336 16.5919 -68.2801 -13.3754
lowerback 23.3792 -0.489845 -1.48878
upperback 3.51845 -0.822541 4.14249
thorax -9.08569 -0.372084 5.7231
lowerneck -3.73148 11.5377 1.73774
upperneck -13.8225 14.6261 -7.39478
head -3.12662 7.35376 -2.85101
rclavicle 6.36111e-015 -5.22804e-014
rhumerus -52.738 -42.9261 -27.8959
rradius 133.312
rwrist 18.4187
rhand -50.092 88.4507
rfingers 7.12502
rthumb -22.6774 59.7631
lclavicle 6.36111e-015 -5.22804e-014
lhumerus -32.8447 9.75888 61.8043
lradius 98.4209
lwrist -23.8012
lhand -38.2997 -25.9879
lfingers 7.12502
lthumb -11.3283 3.68618
rfemur -14.3838 -12.7717 21.9032
rtibia 55.3521
rfoot -22.3926 -24.3829
rtoes -18.0038
lfemur -36.9453 12.5573 -13.0723
ltibia 53.6716
lfoot -23.0057 -15.0894
ltoes -3.49033
2743
root 14.7745 16.9143 -15.7995 16.3366 -67.4305 -12.9735
lowerback 23.0493 -0.274122 -1.31747
upperback 3.38503 -0.48708 4.10909
thorax -9.09772 -0.210935 5.47488
lowerneck -3.76948 11.2274 2.17573
upperneck -13.6676 14.1882 -7.68282
head -3.03182 7.12687 -2.99979
rclavicle 5.89397e-014 -2.16675e-014
rhumerus -50.754 -39.3914 -33.2741
rradius 132.847
rwrist 15.2555
rhand -44.5704 89.0372
rfingers 7.12502
rthumb -17.3702 59.7934
lclavicle 5.89397e-014 -2.16675e-014
lhumerus -33.0007 10.1191 60.6619
lradius 99.3706
lwrist -24.4368
lhand -40.0175 -23.5209
lfingers 7.12502
lthumb -12.9846 6.05499
rfemur -13.7229 -13.2366 21.9225
rtibia 54.0718
rfoot -21.653 -24.3682
rtoes -17.6684
lfemur -36.1757 12.5685 -13.1365
ltibia 52.6571
lfoot -22.9722 -11.3421
ltoes -3.47476
2744
root 14.7308 16.9838 -15.7555 15.5995 -66.4336 -12.0756
lowerback 22.6718 -0.049759 -1.07547
upperback 3.23404 -0.131303 3.96932
thorax -9.1025 -0.0432504 5.06114
lowerneck -3.63226 10.7651 2.91364
upperneck -13.6124 13.5242 -8.19377
head -2.98225 6.78402 -3.29362
rclavicle 9.83984e-015 -1.27222e-014
rhumerus -49.7912 -36.763 -37.5405
rradius 132.307
rwrist 11.2924
rhand -38.767 88.9383
rfingers 7.12502
rthumb -11.779 59.2895
lclavicle 9.83984e-015 -1.27222e-014
lhumerus -32.803 9.95358 59.5499
lradius 100.145
lwrist -24.5933
lhand -41.9913 -23.366
lfingers 7.12502
lthumb -14.8868 6.0791
rfemur -12.9935 -14.02 21.6435
rtibia 52.8464
rfoot -20.6636 -24.3643
rtoes -18.7421
lfemur -35.5709 12.4035 -13.4894
ltibia 51.7379
lfoot -23.19 -7.38516
ltoes -5.26787
2745
root 14.6825 17.0515 -15.705 15.5255 -65.5697 -11.9653
lowerback 22.2499 0.196392 -0.657473
upperback 3.14639 0.293289 3.90786
thorax -9.01237 0.147199 4.61343
lowerneck -3.46539 10.4057 3.33734
upperneck -13.5762 13.0091 -8.63006
head -2.97101 6.52858 -3.52174
rclavicle -5.38706e-014 1.15295e-014
rhumerus -49.0179 -34.9477 -41.2063
rradius 131.728
rwrist 6.96334
rhand -32.9754 88.3585
rfingers 7.12502
rthumb -6.19043 58.469
lclavicle -5.38706e-014 1.15295e-014
lhumerus -32.5118 10.4104 58.6675
lradius 100.753
lwrist -24.9768
lhand -43.3668 -24.6787
lfingers 7.12502
lthumb -16.2116 4.66348
rfemur -12.1373 -14.5743 21.6407
rtibia 51.5613
rfoot -20.1524 -24.1521
rtoes -18.899
lfemur -34.8208 12.3008 -13.5553
ltibia 50.8299
lfoot -23.3458 -2.85017
ltoes -10.0867
2746
root 14.6309 17.1119 -15.6567 15.5879 -64.8249 -12.0185
lowerback 21.7675 0.434298 -0.413884
upperback 3.13384 0.662387 3.91485
thorax -8.79661 0.314588 4.36148
lowerneck -3.83064 10.2752 3.20594
upperneck -13.3964 12.8571 -8.36627
head -2.87998 6.44446 -3.37926
rclavicle 3.29983e-014 -7.15625e-015
rhumerus -48.0663 -33.3666 -44.1179
rradius 131.125
rwrist 2.11756
rhand -27.2932 87.1782
rfingers 7.12502
rthumb -0.703228 57.1996
lclavicle 3.29983e-014 -7.15625e-015
lhumerus -32.1628 11.1159 57.8359
lradius 101.486
lwrist -25.3815
lhand -42.9891 -21.8338
lfingers 7.12502
lthumb -15.8479 7.53766
rfemur -11.3217 -14.9554 21.7199
rtibia 50.3277
rfoot -19.7045 -23.9527
rtoes -18.1499
lfemur -34.1265 13.109 -13.6634
ltibia 49.9701
lfoot -22.9438 -0.0806067
ltoes -11.8929
